<svg xmlns="http://www.w3.org/2000/svg" viewBox="0 0 600 400" width="600" height="400">
  <rect width="600" height="400" fill="#fdf8f0"/>
  <defs><linearGradient id="bg" x1="0%" y1="0%" x2="100%" y2="100%"><stop offset="0%" style="stop-color:#fce4ec"/><stop offset="100%" style="stop-color:#f8bbd0"/></linearGradient></defs>
  <rect width="600" height="400" fill="url(#bg)" opacity="0.5"/>
  <!-- Balloon garland -->
  <circle cx="80" cy="60" r="30" fill="#e8a0bf" opacity="0.5"/>
  <circle cx="130" cy="45" r="35" fill="#f5c6d0" opacity="0.5"/>
  <circle cx="185" cy="40" r="28" fill="#c9a84c" opacity="0.3"/>
  <circle cx="230" cy="50" r="32" fill="#e8a0bf" opacity="0.4"/>
  <circle cx="280" cy="38" r="30" fill="#d4789b" opacity="0.3"/>
  <circle cx="330" cy="45" r="34" fill="#f5c6d0" opacity="0.45"/>
  <circle cx="380" cy="40" r="28" fill="#c9a84c" opacity="0.35"/>
  <circle cx="425" cy="50" r="32" fill="#e8a0bf" opacity="0.4"/>
  <circle cx="475" cy="42" r="30" fill="#d4789b" opacity="0.35"/>
  <circle cx="520" cy="55" r="28" fill="#f5c6d0" opacity="0.5"/>
  <!-- Banner -->
  <path d="M120 120 L480 120" stroke="#c9a84c" stroke-width="2" opacity="0.5"/>
  <polygon points="150,120 165,150 180,120" fill="#e8a0bf" opacity="0.4"/>
  <polygon points="200,120 215,150 230,120" fill="#c9a84c" opacity="0.3"/>
  <polygon points="250,120 265,150 280,120" fill="#f5c6d0" opacity="0.5"/>
  <polygon points="300,120 315,150 330,120" fill="#d4789b" opacity="0.3"/>
  <polygon points="350,120 365,150 380,120" fill="#e8a0bf" opacity="0.4"/>
  <polygon points="400,120 415,150 430,120" fill="#c9a84c" opacity="0.3"/>
  <!-- Dessert table -->
  <rect x="150" y="260" width="300" height="10" rx="3" fill="#c9a84c" opacity="0.25"/>
  <rect x="160" y="270" width="8" height="60" fill="#c9a84c" opacity="0.2"/>
  <rect x="432" y="270" width="8" height="60" fill="#c9a84c" opacity="0.2"/>
  <!-- Cupcakes -->
  <rect x="200" y="240" width="24" height="20" rx="4" fill="#f5c6d0" opacity="0.6"/>
  <circle cx="212" cy="235" r="14" fill="#e8a0bf" opacity="0.5"/>
  <rect x="270" y="240" width="24" height="20" rx="4" fill="#f5c6d0" opacity="0.6"/>
  <circle cx="282" cy="235" r="14" fill="#d4789b" opacity="0.4"/>
  <rect x="340" y="240" width="24" height="20" rx="4" fill="#f5c6d0" opacity="0.6"/>
  <circle cx="352" cy="235" r="14" fill="#e8a0bf" opacity="0.5"/>
  <!-- Sign -->
  <rect x="240" y="170" width="120" height="50" rx="8" fill="#fff" opacity="0.6" stroke="#c9a84c" stroke-width="1.5"/>
  <text x="300" y="200" text-anchor="middle" font-family="Georgia, serif" font-size="16" fill="#d4789b" opacity="0.7">Welcome</text>
  <text x="300" y="380" text-anchor="middle" font-family="Georgia, serif" font-size="16" fill="#d4789b" opacity="0.6">Baby Shower Brunch</text>
</svg>
