<svg xmlns="http://www.w3.org/2000/svg" viewBox="0 0 600 400" width="600" height="400">
  <rect width="600" height="400" fill="#fdf2e9"/>
  <defs><linearGradient id="gg" x1="0%" y1="0%" x2="100%" y2="100%"><stop offset="0%" style="stop-color:#f5e6ca"/><stop offset="100%" style="stop-color:#fdf2e9"/></linearGradient></defs>
  <rect width="600" height="400" fill="url(#gg)"/>
  <!-- Table -->
  <ellipse cx="300" cy="280" rx="180" ry="40" fill="#c9a84c" opacity="0.15"/>
  <ellipse cx="300" cy="275" rx="170" ry="35" fill="#e8d5a3" opacity="0.3"/>
  <!-- Candelabra -->
  <rect x="290" y="180" width="20" height="80" rx="4" fill="#c9a84c" opacity="0.4"/>
  <rect x="260" y="170" width="80" height="6" rx="3" fill="#c9a84c" opacity="0.4"/>
  <rect x="265" y="155" width="6" height="18" rx="2" fill="#c9a84c" opacity="0.5"/>
  <rect x="295" y="145" width="6" height="28" rx="2" fill="#c9a84c" opacity="0.5"/>
  <rect x="325" y="155" width="6" height="18" rx="2" fill="#c9a84c" opacity="0.5"/>
  <!-- Flames -->
  <ellipse cx="268" cy="150" rx="4" ry="7" fill="#e8a0bf" opacity="0.6"/>
  <ellipse cx="298" cy="140" rx="4" ry="7" fill="#e8a0bf" opacity="0.6"/>
  <ellipse cx="328" cy="150" rx="4" ry="7" fill="#e8a0bf" opacity="0.6"/>
  <!-- Plates -->
  <ellipse cx="200" cy="290" rx="30" ry="10" fill="#fff" opacity="0.5" stroke="#c9a84c" stroke-width="1"/>
  <ellipse cx="400" cy="290" rx="30" ry="10" fill="#fff" opacity="0.5" stroke="#c9a84c" stroke-width="1"/>
  <!-- Cake -->
  <rect x="480" y="220" width="60" height="30" rx="4" fill="#f5c6d0" opacity="0.5"/>
  <rect x="490" y="195" width="40" height="28" rx="4" fill="#e8a0bf" opacity="0.5"/>
  <rect x="498" y="175" width="24" height="22" rx="4" fill="#d4789b" opacity="0.4"/>
  <circle cx="510" cy="172" r="4" fill="#c9a84c" opacity="0.5"/>
  <!-- Chandelier top -->
  <path d="M200 20 Q300 60 400 20" fill="none" stroke="#c9a84c" stroke-width="2" opacity="0.3"/>
  <circle cx="250" cy="40" r="4" fill="#e8a0bf" opacity="0.4"/>
  <circle cx="300" cy="50" r="4" fill="#e8a0bf" opacity="0.4"/>
  <circle cx="350" cy="40" r="4" fill="#e8a0bf" opacity="0.4"/>
  <text x="300" y="380" text-anchor="middle" font-family="Georgia, serif" font-size="16" fill="#c9a84c" opacity="0.6">Golden Anniversary Gala</text>
</svg>
