<svg xmlns="http://www.w3.org/2000/svg" viewBox="0 0 600 400" width="600" height="400">
  <rect width="600" height="400" fill="#fdf2e9"/>
  <rect x="0" y="0" width="600" height="400" fill="url(#wg)" opacity="0.5"/>
  <defs><linearGradient id="wg" x1="0%" y1="0%" x2="100%" y2="100%"><stop offset="0%" style="stop-color:#f9d4d4"/><stop offset="100%" style="stop-color:#f5e6ca"/></linearGradient></defs>
  <!-- Arch -->
  <path d="M200 380 V180 Q200 80 300 80 Q400 80 400 180 V380" fill="none" stroke="#c9a84c" stroke-width="3" opacity="0.6"/>
  <path d="M210 380 V185 Q210 95 300 95 Q390 95 390 185 V380" fill="none" stroke="#e8a0bf" stroke-width="2" opacity="0.4"/>
  <!-- Flowers on arch -->
  <circle cx="210" cy="160" r="8" fill="#e8a0bf" opacity="0.6"/>
  <circle cx="220" cy="140" r="6" fill="#d4789b" opacity="0.5"/>
  <circle cx="205" cy="180" r="5" fill="#f5c6d0" opacity="0.6"/>
  <circle cx="390" cy="160" r="8" fill="#e8a0bf" opacity="0.6"/>
  <circle cx="380" cy="140" r="6" fill="#d4789b" opacity="0.5"/>
  <circle cx="395" cy="180" r="5" fill="#f5c6d0" opacity="0.6"/>
  <!-- Couple silhouette -->
  <ellipse cx="280" cy="250" rx="18" ry="22" fill="#c9a84c" opacity="0.3"/>
  <ellipse cx="320" cy="248" rx="20" ry="24" fill="#d4789b" opacity="0.3"/>
  <circle cx="280" cy="220" r="12" fill="#c9a84c" opacity="0.3"/>
  <circle cx="320" cy="218" r="12" fill="#d4789b" opacity="0.3"/>
  <!-- Ground flowers -->
  <circle cx="150" cy="370" r="10" fill="#e8a0bf" opacity="0.4"/>
  <circle cx="170" cy="360" r="8" fill="#f5c6d0" opacity="0.5"/>
  <circle cx="430" cy="370" r="10" fill="#e8a0bf" opacity="0.4"/>
  <circle cx="450" cy="360" r="8" fill="#f5c6d0" opacity="0.5"/>
  <text x="300" y="30" text-anchor="middle" font-family="Georgia, serif" font-size="16" fill="#c9a84c" opacity="0.6">Rose Garden Wedding</text>
</svg>
